<svg xmlns="http://www.w3.org/2000/svg" width="17" height="18" viewBox="0 0 17 18" fill="none">
  <path fill-rule="evenodd" clip-rule="evenodd" d="M11.7614 16.9167H4.80492C2.24962 16.9167 0.289283 15.9937 0.84611 12.279L1.49447 7.24466C1.83772 5.39111 3.02002 4.68173 4.0574 4.68173H12.5395C13.5921 4.68173 14.7058 5.44451 15.1024 7.24466L15.7508 12.279C16.2237 15.5742 14.3167 16.9167 11.7614 16.9167Z" stroke="#130F26" stroke-width="1.5" stroke-linecap="round" stroke-linejoin="round"/>
  <path d="M11.8759 4.49865C11.8759 2.51026 10.264 0.898348 8.27556 0.898348V0.898348C7.31806 0.894291 6.39839 1.27182 5.7199 1.94744C5.04141 2.62307 4.66 3.54114 4.66 4.49865H4.66" stroke="#130F26" stroke-width="1.5" stroke-linecap="round" stroke-linejoin="round"/>
  <path d="M10.747 8.25151H10.7088" stroke="#130F26" stroke-width="1.5" stroke-linecap="round" stroke-linejoin="round"/>
  <path d="M5.88807 8.25151H5.84993" stroke="#130F26" stroke-width="1.5" stroke-linecap="round" stroke-linejoin="round"/>
</svg>